<?xml version="1.0" encoding="UTF-8" standalone="no"?>
<!DOCTYPE svg PUBLIC "-//W3C//DTD SVG 1.1//EN"
 "http://www.w3.org/Graphics/SVG/1.1/DTD/svg11.dtd">
<!-- Generated by graphviz version 2.38.0 (20140413.2041)
 -->
<!-- Title: allNamespacesGraph Pages: 1 -->
<svg width="360pt" height="97pt"
 viewBox="0.00 0.00 360.00 97.04" xmlns="http://www.w3.org/2000/svg" xmlns:xlink="http://www.w3.org/1999/xlink">
<g id="graph0" class="graph" transform="scale(0.447205 0.447205) rotate(0) translate(4 213)">
<title>allNamespacesGraph</title>
<polygon fill="white" stroke="none" points="-4,4 -4,-213 801,-213 801,4 -4,4"/>
<g id="clust1" class="cluster"><title>cluster___SebastianBergmann</title>
<polygon fill="#eeeeee" stroke="black" points="8,-8 8,-201 789,-201 789,-8 8,-8"/>
<text text-anchor="middle" x="398.5" y="-185.8" font-family="Times New Roman,serif" font-size="14.00">\SebastianBergmann</text>
</g>
<g id="clust2" class="cluster"><title>cluster___SebastianBergmann__PHPCPD</title>
<polygon fill="#eeeeee" stroke="black" points="16,-16 16,-170 781,-170 781,-16 16,-16"/>
<text text-anchor="middle" x="398.5" y="-154.8" font-family="Times New Roman,serif" font-size="14.00">\SebastianBergmann\PHPCPD</text>
</g>
<g id="clust3" class="cluster"><title>cluster___SebastianBergmann__PHPCPD__Detector</title>
<polygon fill="#eeeeee" stroke="black" points="468,-24 468,-139 773,-139 773,-24 468,-24"/>
<text text-anchor="middle" x="620.5" y="-123.8" font-family="Times New Roman,serif" font-size="14.00">\SebastianBergmann\PHPCPD\Detector</text>
</g>
<g id="clust4" class="cluster"><title>cluster___SebastianBergmann__PHPCPD__Detector__Strategy</title>
<polygon fill="#eeeeee" stroke="black" points="476,-32 476,-108 765,-108 765,-32 476,-32"/>
<text text-anchor="middle" x="620.5" y="-92.8" font-family="Times New Roman,serif" font-size="14.00">\SebastianBergmann\PHPCPD\Detector\Strategy</text>
</g>
<g id="clust5" class="cluster"><title>cluster___SebastianBergmann__PHPCPD__CLI</title>
<polygon fill="#eeeeee" stroke="black" points="246,-32 246,-108 460,-108 460,-32 246,-32"/>
<text text-anchor="middle" x="353" y="-92.8" font-family="Times New Roman,serif" font-size="14.00">\SebastianBergmann\PHPCPD\CLI</text>
</g>
<g id="clust6" class="cluster"><title>cluster___SebastianBergmann__PHPCPD__Log</title>
<polygon fill="#eeeeee" stroke="black" points="24,-32 24,-108 238,-108 238,-32 24,-32"/>
<text text-anchor="middle" x="131" y="-92.8" font-family="Times New Roman,serif" font-size="14.00">\SebastianBergmann\PHPCPD\Log</text>
</g>
<!-- _SebastianBergmann_PHPCPD_Detector_Strategy -->
<g id="node1" class="node"><title>_SebastianBergmann_PHPCPD_Detector_Strategy</title>
<polygon fill="#cccccc" stroke="black" points="589,-40.5 589,-76.5 651,-76.5 651,-40.5 589,-40.5"/>
<text text-anchor="middle" x="620" y="-54.8" font-family="Times New Roman,serif" font-size="14.00">Strategy</text>
</g>
<!-- _SebastianBergmann_PHPCPD_CLI -->
<g id="node2" class="node"><title>_SebastianBergmann_PHPCPD_CLI</title>
<polygon fill="#cccccc" stroke="black" points="326,-40.5 326,-76.5 380,-76.5 380,-40.5 326,-40.5"/>
<text text-anchor="middle" x="353" y="-54.8" font-family="Times New Roman,serif" font-size="14.00">CLI</text>
</g>
<!-- _SebastianBergmann_PHPCPD_Log -->
<g id="node3" class="node"><title>_SebastianBergmann_PHPCPD_Log</title>
<polygon fill="#cccccc" stroke="black" points="104,-40.5 104,-76.5 158,-76.5 158,-40.5 104,-40.5"/>
<text text-anchor="middle" x="131" y="-54.8" font-family="Times New Roman,serif" font-size="14.00">Log</text>
</g>
</g>
</svg>
