<?xml version="1.0" encoding="UTF-8" standalone="no"?>
<!DOCTYPE svg PUBLIC "-//W3C//DTD SVG 1.1//EN"
 "http://www.w3.org/Graphics/SVG/1.1/DTD/svg11.dtd">
<!-- Generated by graphviz version 2.38.0 (20140413.2041)
 -->
<!-- Title: _Symfony_Component_Routing_Route__setDefaults Pages: 1 -->
<svg width="360pt" height="90pt"
 viewBox="0.00 0.00 360.00 90.09" xmlns="http://www.w3.org/2000/svg" xmlns:xlink="http://www.w3.org/1999/xlink">
<g id="graph0" class="graph" transform="scale(0.350536 0.350536) rotate(0) translate(4 253)">
<title>_Symfony_Component_Routing_Route__setDefaults</title>
<polygon fill="white" stroke="none" points="-4,4 -4,-253 1023,-253 1023,4 -4,4"/>
<g id="clust1" class="cluster"><title>cluster___Symfony__Component__Routing__RouteCollectionBuilder</title>
<polygon fill="#eeeeee" stroke="black" points="8,-165 8,-241 331,-241 331,-165 8,-165"/>
<text text-anchor="middle" x="169.5" y="-225.8" font-family="Times New Roman,serif" font-size="14.00">\Symfony\Component\Routing\RouteCollectionBuilder</text>
</g>
<g id="clust2" class="cluster"><title>cluster___Symfony__Component__Routing__Tests__Loader__PhpFileLoaderTest</title>
<polygon fill="#eeeeee" stroke="black" points="339,-165 339,-241 717,-241 717,-165 339,-165"/>
<text text-anchor="middle" x="528" y="-225.8" font-family="Times New Roman,serif" font-size="14.00">\Symfony\Component\Routing\Tests\Loader\PhpFileLoaderTest</text>
</g>
<g id="clust3" class="cluster"><title>cluster___Symfony__Component__Routing__Tests__RouteTest</title>
<polygon fill="#eeeeee" stroke="black" points="725,-165 725,-241 1011,-241 1011,-165 725,-165"/>
<text text-anchor="middle" x="868" y="-225.8" font-family="Times New Roman,serif" font-size="14.00">\Symfony\Component\Routing\Tests\RouteTest</text>
</g>
<g id="clust4" class="cluster"><title>cluster___Symfony__Component__Routing__Route</title>
<polygon fill="#bbbbbb" stroke="black" points="421,-8 421,-157 648,-157 648,-8 421,-8"/>
<text text-anchor="middle" x="534.5" y="-141.8" font-family="Times New Roman,serif" font-size="14.00">\Symfony\Component\Routing\Route</text>
</g>
<!-- _Symfony_Component_Routing_RouteCollectionBuilder__build -->
<g id="node1" class="node"><title>_Symfony_Component_Routing_RouteCollectionBuilder__build</title>
<polygon fill="#bbbbbb" stroke="black" points="269,-173.5 269,-209.5 323,-209.5 323,-173.5 269,-173.5"/>
<text text-anchor="middle" x="296" y="-187.8" font-family="Times New Roman,serif" font-size="14.00">build</text>
</g>
<!-- _Symfony_Component_Routing_Route__setDefaults -->
<g id="node5" class="node"><title>_Symfony_Component_Routing_Route__setDefaults</title>
<polygon fill="#bbbbbb" stroke="black" points="495,-89.5 495,-125.5 573,-125.5 573,-89.5 495,-89.5"/>
<text text-anchor="middle" x="534" y="-103.8" font-family="Times New Roman,serif" font-size="14.00">setDefaults</text>
</g>
<!-- _Symfony_Component_Routing_RouteCollectionBuilder__build&#45;&gt;_Symfony_Component_Routing_Route__setDefaults -->
<g id="edge5" class="edge"><title>_Symfony_Component_Routing_RouteCollectionBuilder__build&#45;&gt;_Symfony_Component_Routing_Route__setDefaults</title>
<path fill="none" stroke="black" d="M319.687,-173.398C324.597,-170.321 329.848,-167.35 335,-165 383.904,-142.698 443.64,-127.162 484.83,-118.103"/>
<polygon fill="black" stroke="black" points="485.585,-121.521 494.624,-115.995 484.111,-114.678 485.585,-121.521"/>
</g>
<!-- _Symfony_Component_Routing_Tests_Loader_PhpFileLoaderTest__testRoutingConfigurator -->
<g id="node2" class="node"><title>_Symfony_Component_Routing_Tests_Loader_PhpFileLoaderTest__testRoutingConfigurator</title>
<polygon fill="#bbbbbb" stroke="black" points="549,-173.5 549,-209.5 701,-209.5 701,-173.5 549,-173.5"/>
<text text-anchor="middle" x="625" y="-187.8" font-family="Times New Roman,serif" font-size="14.00">testRoutingConfigurator</text>
</g>
<!-- _Symfony_Component_Routing_Tests_Loader_PhpFileLoaderTest__testRoutingConfigurator&#45;&gt;_Symfony_Component_Routing_Route__setDefaults -->
<g id="edge2" class="edge"><title>_Symfony_Component_Routing_Tests_Loader_PhpFileLoaderTest__testRoutingConfigurator&#45;&gt;_Symfony_Component_Routing_Route__setDefaults</title>
<path fill="none" stroke="black" d="M605.701,-173.11C592.583,-161.289 575.057,-145.497 560.617,-132.484"/>
<polygon fill="black" stroke="black" points="562.731,-129.678 552.959,-125.584 558.045,-134.878 562.731,-129.678"/>
</g>
<!-- _Symfony_Component_Routing_Tests_Loader_PhpFileLoaderTest__testRoutingI18nConfigurator -->
<g id="node3" class="node"><title>_Symfony_Component_Routing_Tests_Loader_PhpFileLoaderTest__testRoutingI18nConfigurator</title>
<polygon fill="#bbbbbb" stroke="black" points="355,-173.5 355,-209.5 531,-209.5 531,-173.5 355,-173.5"/>
<text text-anchor="middle" x="443" y="-187.8" font-family="Times New Roman,serif" font-size="14.00">testRoutingI18nConfigurator</text>
</g>
<!-- _Symfony_Component_Routing_Tests_Loader_PhpFileLoaderTest__testRoutingI18nConfigurator&#45;&gt;_Symfony_Component_Routing_Route__setDefaults -->
<g id="edge3" class="edge"><title>_Symfony_Component_Routing_Tests_Loader_PhpFileLoaderTest__testRoutingI18nConfigurator&#45;&gt;_Symfony_Component_Routing_Route__setDefaults</title>
<path fill="none" stroke="black" d="M462.299,-173.11C475.417,-161.289 492.943,-145.497 507.383,-132.484"/>
<polygon fill="black" stroke="black" points="509.955,-134.878 515.041,-125.584 505.269,-129.678 509.955,-134.878"/>
</g>
<!-- _Symfony_Component_Routing_Tests_RouteTest__testDefaults -->
<g id="node4" class="node"><title>_Symfony_Component_Routing_Tests_RouteTest__testDefaults</title>
<polygon fill="#bbbbbb" stroke="black" points="733,-173.5 733,-209.5 815,-209.5 815,-173.5 733,-173.5"/>
<text text-anchor="middle" x="774" y="-187.8" font-family="Times New Roman,serif" font-size="14.00">testDefaults</text>
</g>
<!-- _Symfony_Component_Routing_Tests_RouteTest__testDefaults&#45;&gt;_Symfony_Component_Routing_Route__setDefaults -->
<g id="edge4" class="edge"><title>_Symfony_Component_Routing_Tests_RouteTest__testDefaults&#45;&gt;_Symfony_Component_Routing_Route__setDefaults</title>
<path fill="none" stroke="black" d="M740.417,-173.381C734.045,-170.408 727.376,-167.48 721,-165 675.156,-147.17 621.233,-131.407 583.102,-121.093"/>
<polygon fill="black" stroke="black" points="583.84,-117.667 573.275,-118.461 582.029,-124.429 583.84,-117.667"/>
</g>
<!-- _Symfony_Component_Routing_Route__addDefaults -->
<g id="node6" class="node"><title>_Symfony_Component_Routing_Route__addDefaults</title>
<polygon fill="#bbbbbb" stroke="black" points="492.5,-16.5 492.5,-52.5 575.5,-52.5 575.5,-16.5 492.5,-16.5"/>
<text text-anchor="middle" x="534" y="-30.8" font-family="Times New Roman,serif" font-size="14.00">addDefaults</text>
</g>
<!-- _Symfony_Component_Routing_Route__setDefaults&#45;&gt;_Symfony_Component_Routing_Route__addDefaults -->
<g id="edge1" class="edge"><title>_Symfony_Component_Routing_Route__setDefaults&#45;&gt;_Symfony_Component_Routing_Route__addDefaults</title>
<path fill="none" stroke="black" d="M534,-89.3129C534,-81.2895 534,-71.5475 534,-62.5691"/>
<polygon fill="black" stroke="black" points="537.5,-62.5288 534,-52.5288 530.5,-62.5289 537.5,-62.5288"/>
</g>
</g>
</svg>
