<?xml version="1.0" encoding="UTF-8" standalone="no"?>
<!DOCTYPE svg PUBLIC "-//W3C//DTD SVG 1.1//EN"
 "http://www.w3.org/Graphics/SVG/1.1/DTD/svg11.dtd">
<!-- Generated by graphviz version 2.38.0 (20140413.2041)
 -->
<!-- Title: _Symfony_Component_Console_Command_Command Pages: 1 -->
<svg width="360pt" height="111pt"
 viewBox="0.00 0.00 360.00 111.12" xmlns="http://www.w3.org/2000/svg" xmlns:xlink="http://www.w3.org/1999/xlink">
<g id="graph0" class="graph" transform="scale(0.20654 0.20654) rotate(0) translate(4 534)">
<title>_Symfony_Component_Console_Command_Command</title>
<polygon fill="white" stroke="none" points="-4,4 -4,-534 1739,-534 1739,4 -4,4"/>
<g id="clust1" class="cluster"><title>cluster_Lack_of_Cohesion_in_Methods_4__LCOM4__graph_for___Symfony__Component__Console__Command__Command</title>
<polygon fill="#eeeeee" stroke="black" points="8,-8 8,-522 1727,-522 1727,-8 8,-8"/>
<text text-anchor="middle" x="867.5" y="-506.8" font-family="Times New Roman,serif" font-size="14.00">Lack of Cohesion in Methods 4 (LCOM4) graph for \Symfony\Component\Console\Command\Command</text>
</g>
<!-- _Symfony_Component_Console_Command_Command__setProcessTitle -->
<g id="node1" class="node"><title>_Symfony_Component_Console_Command_Command__setProcessTitle</title>
<polygon fill="#cccccc" stroke="black" points="1617,-454.5 1617,-490.5 1719,-490.5 1719,-454.5 1617,-454.5"/>
<text text-anchor="middle" x="1668" y="-468.8" font-family="Times New Roman,serif" font-size="14.00">setProcessTitle</text>
</g>
<!-- _Symfony_Component_Console_Command_Command__getApplication -->
<g id="node2" class="node"><title>_Symfony_Component_Console_Command_Command__getApplication</title>
<polygon fill="#cccccc" stroke="black" points="1501,-454.5 1501,-490.5 1599,-490.5 1599,-454.5 1501,-454.5"/>
<text text-anchor="middle" x="1550" y="-468.8" font-family="Times New Roman,serif" font-size="14.00">getApplication</text>
</g>
<!-- _Symfony_Component_Console_Command_Command__setHidden -->
<g id="node3" class="node"><title>_Symfony_Component_Console_Command_Command__setHidden</title>
<polygon fill="#cccccc" stroke="black" points="1409.5,-454.5 1409.5,-490.5 1482.5,-490.5 1482.5,-454.5 1409.5,-454.5"/>
<text text-anchor="middle" x="1446" y="-468.8" font-family="Times New Roman,serif" font-size="14.00">setHidden</text>
</g>
<!-- _Symfony_Component_Console_Command_Command__validateName -->
<g id="node4" class="node"><title>_Symfony_Component_Console_Command_Command__validateName</title>
<polygon fill="#cccccc" stroke="black" points="425.5,-16.5 425.5,-52.5 516.5,-52.5 516.5,-16.5 425.5,-16.5"/>
<text text-anchor="middle" x="471" y="-30.8" font-family="Times New Roman,serif" font-size="14.00">validateName</text>
</g>
<!-- _Symfony_Component_Console_Command_Command__addOption -->
<g id="node5" class="node"><title>_Symfony_Component_Console_Command_Command__addOption</title>
<polygon fill="#cccccc" stroke="black" points="512.5,-308.5 512.5,-344.5 589.5,-344.5 589.5,-308.5 512.5,-308.5"/>
<text text-anchor="middle" x="551" y="-322.8" font-family="Times New Roman,serif" font-size="14.00">addOption</text>
</g>
<!-- _Symfony_Component_Console_Command_Command__addOption&#45;&gt;_Symfony_Component_Console_Command_Command__validateName -->
<g id="edge29" class="edge"><title>_Symfony_Component_Console_Command_Command__addOption&#45;&gt;_Symfony_Component_Console_Command_Command__validateName</title>
<path fill="none" stroke="black" d="M578.573,-308.415C609.61,-287.25 657.929,-247.927 675,-199 691.105,-152.84 704.865,-127.707 675,-89 656.982,-65.6472 580.84,-50.498 526.873,-42.4763"/>
<polygon fill="black" stroke="black" points="527.134,-38.9778 516.737,-41.0138 526.134,-45.906 527.134,-38.9778"/>
</g>
<!-- _Symfony_Component_Console_Command_Command__getHelper -->
<g id="node8" class="node"><title>_Symfony_Component_Console_Command_Command__getHelper</title>
<polygon fill="#cccccc" stroke="black" points="362,-89.5 362,-125.5 432,-125.5 432,-89.5 362,-89.5"/>
<text text-anchor="middle" x="397" y="-103.8" font-family="Times New Roman,serif" font-size="14.00">getHelper</text>
</g>
<!-- _Symfony_Component_Console_Command_Command__addOption&#45;&gt;_Symfony_Component_Console_Command_Command__getHelper -->
<g id="edge28" class="edge"><title>_Symfony_Component_Console_Command_Command__addOption&#45;&gt;_Symfony_Component_Console_Command_Command__getHelper</title>
<path fill="none" stroke="black" d="M568.312,-308.467C584.88,-290.007 605.504,-259.857 592,-235 589.766,-230.887 488.304,-166.265 432.648,-131.021"/>
<polygon fill="black" stroke="black" points="434.452,-128.021 424.131,-125.63 430.709,-133.936 434.452,-128.021"/>
</g>
<!-- _Symfony_Component_Console_Command_Command__setName -->
<g id="node16" class="node"><title>_Symfony_Component_Console_Command_Command__setName</title>
<polygon fill="#cccccc" stroke="black" points="382.5,-235.5 382.5,-271.5 447.5,-271.5 447.5,-235.5 382.5,-235.5"/>
<text text-anchor="middle" x="415" y="-249.8" font-family="Times New Roman,serif" font-size="14.00">setName</text>
</g>
<!-- _Symfony_Component_Console_Command_Command__addOption&#45;&gt;_Symfony_Component_Console_Command_Command__setName -->
<g id="edge26" class="edge"><title>_Symfony_Component_Console_Command_Command__addOption&#45;&gt;_Symfony_Component_Console_Command_Command__setName</title>
<path fill="none" stroke="black" d="M518.425,-308.494C499.972,-298.861 476.692,-286.707 456.893,-276.37"/>
<polygon fill="black" stroke="black" points="458.265,-273.139 447.781,-271.614 455.026,-279.344 458.265,-273.139"/>
</g>
<!-- _Symfony_Component_Console_Command_Command__setDescription -->
<g id="node28" class="node"><title>_Symfony_Component_Console_Command_Command__setDescription</title>
<polygon fill="#cccccc" stroke="black" points="486.5,-235.5 486.5,-271.5 583.5,-271.5 583.5,-235.5 486.5,-235.5"/>
<text text-anchor="middle" x="535" y="-249.8" font-family="Times New Roman,serif" font-size="14.00">setDescription</text>
</g>
<!-- _Symfony_Component_Console_Command_Command__addOption&#45;&gt;_Symfony_Component_Console_Command_Command__setDescription -->
<g id="edge36" class="edge"><title>_Symfony_Component_Console_Command_Command__addOption&#45;&gt;_Symfony_Component_Console_Command_Command__setDescription</title>
<path fill="none" stroke="black" d="M547.127,-308.313C545.319,-300.289 543.123,-290.547 541.1,-281.569"/>
<polygon fill="black" stroke="black" points="544.45,-280.515 538.837,-271.529 537.622,-282.054 544.45,-280.515"/>
</g>
<!-- _Symfony_Component_Console_Command_Command__getProcessedHelp -->
<g id="node36" class="node"><title>_Symfony_Component_Console_Command_Command__getProcessedHelp</title>
<polygon fill="#cccccc" stroke="black" points="548,-162.5 548,-198.5 666,-198.5 666,-162.5 548,-162.5"/>
<text text-anchor="middle" x="607" y="-176.8" font-family="Times New Roman,serif" font-size="14.00">getProcessedHelp</text>
</g>
<!-- _Symfony_Component_Console_Command_Command__addOption&#45;&gt;_Symfony_Component_Console_Command_Command__getProcessedHelp -->
<g id="edge27" class="edge"><title>_Symfony_Component_Console_Command_Command__addOption&#45;&gt;_Symfony_Component_Console_Command_Command__getProcessedHelp</title>
<path fill="none" stroke="black" d="M577.287,-308.434C589.03,-299.212 601.638,-286.697 608,-272 616.65,-252.018 615.642,-227.151 612.898,-208.543"/>
<polygon fill="black" stroke="black" points="616.342,-207.917 611.193,-198.657 609.444,-209.107 616.342,-207.917"/>
</g>
<!-- _Symfony_Component_Console_Command_Command__setAliases -->
<g id="node6" class="node"><title>_Symfony_Component_Console_Command_Command__setAliases</title>
<polygon fill="#cccccc" stroke="black" points="704,-89.5 704,-125.5 776,-125.5 776,-89.5 704,-89.5"/>
<text text-anchor="middle" x="740" y="-103.8" font-family="Times New Roman,serif" font-size="14.00">setAliases</text>
</g>
<!-- _Symfony_Component_Console_Command_Command__setAliases&#45;&gt;_Symfony_Component_Console_Command_Command__validateName -->
<g id="edge3" class="edge"><title>_Symfony_Component_Console_Command_Command__setAliases&#45;&gt;_Symfony_Component_Console_Command_Command__validateName</title>
<path fill="none" stroke="black" d="M703.814,-93.371C699.187,-91.8292 694.497,-90.3329 690,-89 634.994,-72.6972 571.18,-57.5237 526.677,-47.5312"/>
<polygon fill="black" stroke="black" points="527.165,-44.054 516.643,-45.2923 525.641,-50.886 527.165,-44.054"/>
</g>
<!-- _Symfony_Component_Console_Command_Command__getSynopsis -->
<g id="node7" class="node"><title>_Symfony_Component_Console_Command_Command__getSynopsis</title>
<polygon fill="#cccccc" stroke="black" points="1353.5,-381.5 1353.5,-417.5 1438.5,-417.5 1438.5,-381.5 1353.5,-381.5"/>
<text text-anchor="middle" x="1396" y="-395.8" font-family="Times New Roman,serif" font-size="14.00">getSynopsis</text>
</g>
<!-- _Symfony_Component_Console_Command_Command__getHelper&#45;&gt;_Symfony_Component_Console_Command_Command__validateName -->
<g id="edge34" class="edge"><title>_Symfony_Component_Console_Command_Command__getHelper&#45;&gt;_Symfony_Component_Console_Command_Command__validateName</title>
<path fill="none" stroke="black" d="M414.913,-89.3129C424.185,-80.4174 435.658,-69.4094 445.807,-59.6717"/>
<polygon fill="black" stroke="black" points="448.459,-61.9777 453.252,-52.5288 443.613,-56.9266 448.459,-61.9777"/>
</g>
<!-- _Symfony_Component_Console_Command_Command__setHelperSet -->
<g id="node9" class="node"><title>_Symfony_Component_Console_Command_Command__setHelperSet</title>
<polygon fill="#cccccc" stroke="black" points="822.5,-381.5 822.5,-417.5 909.5,-417.5 909.5,-381.5 822.5,-381.5"/>
<text text-anchor="middle" x="866" y="-395.8" font-family="Times New Roman,serif" font-size="14.00">setHelperSet</text>
</g>
<!-- _Symfony_Component_Console_Command_Command__setDefinition -->
<g id="node10" class="node"><title>_Symfony_Component_Console_Command_Command__setDefinition</title>
<polygon fill="#cccccc" stroke="black" points="1305,-454.5 1305,-490.5 1391,-490.5 1391,-454.5 1305,-454.5"/>
<text text-anchor="middle" x="1348" y="-468.8" font-family="Times New Roman,serif" font-size="14.00">setDefinition</text>
</g>
<!-- _Symfony_Component_Console_Command_Command__getAliases -->
<g id="node11" class="node"><title>_Symfony_Component_Console_Command_Command__getAliases</title>
<polygon fill="#cccccc" stroke="black" points="1213.5,-454.5 1213.5,-490.5 1286.5,-490.5 1286.5,-454.5 1213.5,-454.5"/>
<text text-anchor="middle" x="1250" y="-468.8" font-family="Times New Roman,serif" font-size="14.00">getAliases</text>
</g>
<!-- _Symfony_Component_Console_Command_Command__getNativeDefinition -->
<g id="node12" class="node"><title>_Symfony_Component_Console_Command_Command__getNativeDefinition</title>
<polygon fill="#cccccc" stroke="black" points="1073,-454.5 1073,-490.5 1195,-490.5 1195,-454.5 1073,-454.5"/>
<text text-anchor="middle" x="1134" y="-468.8" font-family="Times New Roman,serif" font-size="14.00">getNativeDefinition</text>
</g>
<!-- _Symfony_Component_Console_Command_Command__getDefinition -->
<g id="node32" class="node"><title>_Symfony_Component_Console_Command_Command__getDefinition</title>
<polygon fill="#cccccc" stroke="black" points="1531.5,-381.5 1531.5,-417.5 1618.5,-417.5 1618.5,-381.5 1531.5,-381.5"/>
<text text-anchor="middle" x="1575" y="-395.8" font-family="Times New Roman,serif" font-size="14.00">getDefinition</text>
</g>
<!-- _Symfony_Component_Console_Command_Command__getNativeDefinition&#45;&gt;_Symfony_Component_Console_Command_Command__getDefinition -->
<g id="edge4" class="edge"><title>_Symfony_Component_Console_Command_Command__getNativeDefinition&#45;&gt;_Symfony_Component_Console_Command_Command__getDefinition</title>
<path fill="none" stroke="black" d="M1195.08,-455.914C1198.43,-455.226 1201.75,-454.582 1205,-454 1341.73,-429.516 1382.26,-447.947 1521.31,-418.118"/>
<polygon fill="black" stroke="black" points="1522.48,-421.446 1531.5,-415.886 1520.98,-414.608 1522.48,-421.446"/>
</g>
<!-- _Symfony_Component_Console_Command_Command__run -->
<g id="node13" class="node"><title>_Symfony_Component_Console_Command_Command__run</title>
<polygon fill="#cccccc" stroke="black" points="1001,-454.5 1001,-490.5 1055,-490.5 1055,-454.5 1001,-454.5"/>
<text text-anchor="middle" x="1028" y="-468.8" font-family="Times New Roman,serif" font-size="14.00">run</text>
</g>
<!-- _Symfony_Component_Console_Command_Command__run&#45;&gt;_Symfony_Component_Console_Command_Command__getSynopsis -->
<g id="edge10" class="edge"><title>_Symfony_Component_Console_Command_Command__run&#45;&gt;_Symfony_Component_Console_Command_Command__getSynopsis</title>
<path fill="none" stroke="black" d="M1055.15,-457.173C1058.08,-455.966 1061.07,-454.875 1064,-454 1181.17,-419.013 1219.77,-444.763 1343.5,-417.813"/>
<polygon fill="black" stroke="black" points="1344.35,-421.207 1353.34,-415.597 1342.82,-414.378 1344.35,-421.207"/>
</g>
<!-- _Symfony_Component_Console_Command_Command__interact -->
<g id="node14" class="node"><title>_Symfony_Component_Console_Command_Command__interact</title>
<polygon fill="#cccccc" stroke="black" points="1456.5,-381.5 1456.5,-417.5 1513.5,-417.5 1513.5,-381.5 1456.5,-381.5"/>
<text text-anchor="middle" x="1485" y="-395.8" font-family="Times New Roman,serif" font-size="14.00">interact</text>
</g>
<!-- _Symfony_Component_Console_Command_Command__run&#45;&gt;_Symfony_Component_Console_Command_Command__interact -->
<g id="edge9" class="edge"><title>_Symfony_Component_Console_Command_Command__run&#45;&gt;_Symfony_Component_Console_Command_Command__interact</title>
<path fill="none" stroke="black" d="M1055.12,-457.069C1058.06,-455.882 1061.06,-454.824 1064,-454 1225.84,-408.689 1280.55,-461.2 1446.25,-417.947"/>
<polygon fill="black" stroke="black" points="1447.53,-421.225 1456.28,-415.246 1445.72,-414.465 1447.53,-421.225"/>
</g>
<!-- _Symfony_Component_Console_Command_Command__getName -->
<g id="node18" class="node"><title>_Symfony_Component_Console_Command_Command__getName</title>
<polygon fill="#cccccc" stroke="black" points="927.5,-381.5 927.5,-417.5 992.5,-417.5 992.5,-381.5 927.5,-381.5"/>
<text text-anchor="middle" x="960" y="-395.8" font-family="Times New Roman,serif" font-size="14.00">getName</text>
</g>
<!-- _Symfony_Component_Console_Command_Command__run&#45;&gt;_Symfony_Component_Console_Command_Command__getName -->
<g id="edge5" class="edge"><title>_Symfony_Component_Console_Command_Command__run&#45;&gt;_Symfony_Component_Console_Command_Command__getName</title>
<path fill="none" stroke="black" d="M1011.54,-454.313C1003.1,-445.505 992.683,-434.625 983.425,-424.958"/>
<polygon fill="black" stroke="black" points="985.754,-422.33 976.309,-417.529 980.698,-427.172 985.754,-422.33"/>
</g>
<!-- _Symfony_Component_Console_Command_Command__execute -->
<g id="node20" class="node"><title>_Symfony_Component_Console_Command_Command__execute</title>
<polygon fill="#cccccc" stroke="black" points="1010.5,-381.5 1010.5,-417.5 1069.5,-417.5 1069.5,-381.5 1010.5,-381.5"/>
<text text-anchor="middle" x="1040" y="-395.8" font-family="Times New Roman,serif" font-size="14.00">execute</text>
</g>
<!-- _Symfony_Component_Console_Command_Command__run&#45;&gt;_Symfony_Component_Console_Command_Command__execute -->
<g id="edge7" class="edge"><title>_Symfony_Component_Console_Command_Command__run&#45;&gt;_Symfony_Component_Console_Command_Command__execute</title>
<path fill="none" stroke="black" d="M1030.9,-454.313C1032.26,-446.289 1033.91,-436.547 1035.42,-427.569"/>
<polygon fill="black" stroke="black" points="1038.91,-427.972 1037.12,-417.529 1032,-426.806 1038.91,-427.972"/>
</g>
<!-- _Symfony_Component_Console_Command_Command__mergeApplicationDefinition -->
<g id="node25" class="node"><title>_Symfony_Component_Console_Command_Command__mergeApplicationDefinition</title>
<polygon fill="#cccccc" stroke="black" points="1087.5,-381.5 1087.5,-417.5 1256.5,-417.5 1256.5,-381.5 1087.5,-381.5"/>
<text text-anchor="middle" x="1172" y="-395.8" font-family="Times New Roman,serif" font-size="14.00">mergeApplicationDefinition</text>
</g>
<!-- _Symfony_Component_Console_Command_Command__run&#45;&gt;_Symfony_Component_Console_Command_Command__mergeApplicationDefinition -->
<g id="edge6" class="edge"><title>_Symfony_Component_Console_Command_Command__run&#45;&gt;_Symfony_Component_Console_Command_Command__mergeApplicationDefinition</title>
<path fill="none" stroke="black" d="M1055.09,-458.145C1075.66,-448.003 1104.37,-433.846 1128.19,-422.099"/>
<polygon fill="black" stroke="black" points="1129.97,-425.126 1137.39,-417.564 1126.87,-418.847 1129.97,-425.126"/>
</g>
<!-- _Symfony_Component_Console_Command_Command__initialize -->
<g id="node29" class="node"><title>_Symfony_Component_Console_Command_Command__initialize</title>
<polygon fill="#cccccc" stroke="black" points="1275,-381.5 1275,-417.5 1335,-417.5 1335,-381.5 1275,-381.5"/>
<text text-anchor="middle" x="1305" y="-395.8" font-family="Times New Roman,serif" font-size="14.00">initialize</text>
</g>
<!-- _Symfony_Component_Console_Command_Command__run&#45;&gt;_Symfony_Component_Console_Command_Command__initialize -->
<g id="edge8" class="edge"><title>_Symfony_Component_Console_Command_Command__run&#45;&gt;_Symfony_Component_Console_Command_Command__initialize</title>
<path fill="none" stroke="black" d="M1055.19,-457.319C1058.12,-456.083 1061.09,-454.946 1064,-454 1147.76,-426.761 1176.86,-443.62 1265.03,-417.88"/>
<polygon fill="black" stroke="black" points="1266.06,-421.226 1274.62,-414.984 1264.03,-414.526 1266.06,-421.226"/>
</g>
<!-- _Symfony_Component_Console_Command_Command__addUsage -->
<g id="node15" class="node"><title>_Symfony_Component_Console_Command_Command__addUsage</title>
<polygon fill="#cccccc" stroke="black" points="911,-454.5 911,-490.5 983,-490.5 983,-454.5 911,-454.5"/>
<text text-anchor="middle" x="947" y="-468.8" font-family="Times New Roman,serif" font-size="14.00">addUsage</text>
</g>
<!-- _Symfony_Component_Console_Command_Command__setName&#45;&gt;_Symfony_Component_Console_Command_Command__validateName -->
<g id="edge14" class="edge"><title>_Symfony_Component_Console_Command_Command__setName&#45;&gt;_Symfony_Component_Console_Command_Command__validateName</title>
<path fill="none" stroke="black" d="M419.394,-235.472C429.082,-197.932 452.343,-107.797 464.038,-62.4774"/>
<polygon fill="black" stroke="black" points="467.439,-63.3062 466.549,-52.7488 460.661,-61.557 467.439,-63.3062"/>
</g>
<!-- _Symfony_Component_Console_Command_Command__setName&#45;&gt;_Symfony_Component_Console_Command_Command__getHelper -->
<g id="edge31" class="edge"><title>_Symfony_Component_Console_Command_Command__setName&#45;&gt;_Symfony_Component_Console_Command_Command__getHelper</title>
<path fill="none" stroke="black" d="M412.864,-235.416C409.779,-210.733 404.044,-164.851 400.38,-135.541"/>
<polygon fill="black" stroke="black" points="403.846,-135.051 399.133,-125.562 396.9,-135.919 403.846,-135.051"/>
</g>
<!-- _Symfony_Component_Console_Command_Command__setName&#45;&gt;_Symfony_Component_Console_Command_Command__getProcessedHelp -->
<g id="edge30" class="edge"><title>_Symfony_Component_Console_Command_Command__setName&#45;&gt;_Symfony_Component_Console_Command_Command__getProcessedHelp</title>
<path fill="none" stroke="black" d="M447.611,-240.343C452.435,-238.549 457.346,-236.725 462,-235 491.354,-224.12 524.07,-212.044 550.986,-202.123"/>
<polygon fill="black" stroke="black" points="552.45,-205.314 560.623,-198.572 550.029,-198.746 552.45,-205.314"/>
</g>
<!-- _Symfony_Component_Console_Command_Command__setApplication -->
<g id="node17" class="node"><title>_Symfony_Component_Console_Command_Command__setApplication</title>
<polygon fill="#cccccc" stroke="black" points="795.5,-454.5 795.5,-490.5 892.5,-490.5 892.5,-454.5 795.5,-454.5"/>
<text text-anchor="middle" x="844" y="-468.8" font-family="Times New Roman,serif" font-size="14.00">setApplication</text>
</g>
<!-- _Symfony_Component_Console_Command_Command__setApplication&#45;&gt;_Symfony_Component_Console_Command_Command__setHelperSet -->
<g id="edge15" class="edge"><title>_Symfony_Component_Console_Command_Command__setApplication&#45;&gt;_Symfony_Component_Console_Command_Command__setHelperSet</title>
<path fill="none" stroke="black" d="M849.326,-454.313C851.839,-446.202 854.896,-436.336 857.703,-427.277"/>
<polygon fill="black" stroke="black" points="861.107,-428.117 860.723,-417.529 854.42,-426.045 861.107,-428.117"/>
</g>
<!-- _Symfony_Component_Console_Command_Command____construct -->
<g id="node19" class="node"><title>_Symfony_Component_Console_Command_Command____construct</title>
<polygon fill="#cccccc" stroke="black" points="708.5,-454.5 708.5,-490.5 777.5,-490.5 777.5,-454.5 708.5,-454.5"/>
<text text-anchor="middle" x="743" y="-468.8" font-family="Times New Roman,serif" font-size="14.00">construct</text>
</g>
<!-- _Symfony_Component_Console_Command_Command____construct&#45;&gt;_Symfony_Component_Console_Command_Command__validateName -->
<g id="edge20" class="edge"><title>_Symfony_Component_Console_Command_Command____construct&#45;&gt;_Symfony_Component_Console_Command_Command__validateName</title>
<path fill="none" stroke="black" d="M763.942,-454.345C774.147,-444.764 785.577,-431.959 792,-418 808.936,-381.191 803,-368.018 803,-327.5 803,-327.5 803,-327.5 803,-179.5 803,-138.49 814.396,-117.596 785,-89 749.152,-54.1266 607.205,-41.8249 526.985,-37.6081"/>
<polygon fill="black" stroke="black" points="526.731,-34.0911 516.569,-37.0877 526.381,-41.0824 526.731,-34.0911"/>
</g>
<!-- _Symfony_Component_Console_Command_Command____construct&#45;&gt;_Symfony_Component_Console_Command_Command__addOption -->
<g id="edge17" class="edge"><title>_Symfony_Component_Console_Command_Command____construct&#45;&gt;_Symfony_Component_Console_Command_Command__addOption</title>
<path fill="none" stroke="black" d="M708.078,-457.16C705.025,-456.043 701.968,-454.973 699,-454 638.77,-434.25 602.453,-465.952 561,-418 546.191,-400.869 544.824,-374.572 546.493,-354.731"/>
<polygon fill="black" stroke="black" points="549.976,-355.081 547.627,-344.75 543.02,-354.291 549.976,-355.081"/>
</g>
<!-- _Symfony_Component_Console_Command_Command____construct&#45;&gt;_Symfony_Component_Console_Command_Command__getHelper -->
<g id="edge19" class="edge"><title>_Symfony_Component_Console_Command_Command____construct&#45;&gt;_Symfony_Component_Console_Command_Command__getHelper</title>
<path fill="none" stroke="black" d="M708.21,-456.707C705.128,-455.689 702.029,-454.765 699,-454 565.377,-420.243 514.624,-478.923 391,-418 340.676,-393.2 303,-383.603 303,-327.5 303,-327.5 303,-327.5 303,-252.5 303,-203.925 340.97,-158.928 368.646,-132.582"/>
<polygon fill="black" stroke="black" points="371.169,-135.015 376.138,-125.658 366.419,-129.874 371.169,-135.015"/>
</g>
<!-- _Symfony_Component_Console_Command_Command____construct&#45;&gt;_Symfony_Component_Console_Command_Command__setName -->
<g id="edge12" class="edge"><title>_Symfony_Component_Console_Command_Command____construct&#45;&gt;_Symfony_Component_Console_Command_Command__setName</title>
<path fill="none" stroke="black" d="M708.203,-456.735C705.122,-455.71 702.026,-454.778 699,-454 636.747,-437.994 454.529,-466.197 412,-418 378.918,-380.509 392.774,-317.222 404.642,-281.374"/>
<polygon fill="black" stroke="black" points="408.058,-282.207 408.051,-271.612 401.45,-279.899 408.058,-282.207"/>
</g>
<!-- _Symfony_Component_Console_Command_Command__configure -->
<g id="node26" class="node"><title>_Symfony_Component_Console_Command_Command__configure</title>
<polygon fill="#cccccc" stroke="black" points="570.5,-381.5 570.5,-417.5 639.5,-417.5 639.5,-381.5 570.5,-381.5"/>
<text text-anchor="middle" x="605" y="-395.8" font-family="Times New Roman,serif" font-size="14.00">configure</text>
</g>
<!-- _Symfony_Component_Console_Command_Command____construct&#45;&gt;_Symfony_Component_Console_Command_Command__configure -->
<g id="edge13" class="edge"><title>_Symfony_Component_Console_Command_Command____construct&#45;&gt;_Symfony_Component_Console_Command_Command__configure</title>
<path fill="none" stroke="black" d="M709.946,-454.494C691.137,-444.817 667.385,-432.597 647.236,-422.23"/>
<polygon fill="black" stroke="black" points="648.756,-419.076 638.263,-417.614 645.554,-425.301 648.756,-419.076"/>
</g>
<!-- _Symfony_Component_Console_Command_Command__addArgument -->
<g id="node30" class="node"><title>_Symfony_Component_Console_Command_Command__addArgument</title>
<polygon fill="#cccccc" stroke="black" points="421,-381.5 421,-417.5 513,-417.5 513,-381.5 421,-381.5"/>
<text text-anchor="middle" x="467" y="-395.8" font-family="Times New Roman,serif" font-size="14.00">addArgument</text>
</g>
<!-- _Symfony_Component_Console_Command_Command____construct&#45;&gt;_Symfony_Component_Console_Command_Command__addArgument -->
<g id="edge16" class="edge"><title>_Symfony_Component_Console_Command_Command____construct&#45;&gt;_Symfony_Component_Console_Command_Command__addArgument</title>
<path fill="none" stroke="black" d="M708.108,-457.068C705.048,-455.971 701.982,-454.931 699,-454 682.287,-448.782 586.068,-427.035 522.908,-412.925"/>
<polygon fill="black" stroke="black" points="523.595,-409.492 513.072,-410.73 522.07,-416.324 523.595,-409.492"/>
</g>
<!-- _Symfony_Component_Console_Command_Command__getDefaultName -->
<g id="node34" class="node"><title>_Symfony_Component_Console_Command_Command__getDefaultName</title>
<polygon fill="#cccccc" stroke="black" points="678.5,-381.5 678.5,-417.5 783.5,-417.5 783.5,-381.5 678.5,-381.5"/>
<text text-anchor="middle" x="731" y="-395.8" font-family="Times New Roman,serif" font-size="14.00">getDefaultName</text>
</g>
<!-- _Symfony_Component_Console_Command_Command____construct&#45;&gt;_Symfony_Component_Console_Command_Command__getDefaultName -->
<g id="edge11" class="edge"><title>_Symfony_Component_Console_Command_Command____construct&#45;&gt;_Symfony_Component_Console_Command_Command__getDefaultName</title>
<path fill="none" stroke="black" d="M740.095,-454.313C738.739,-446.289 737.093,-436.547 735.575,-427.569"/>
<polygon fill="black" stroke="black" points="738.996,-426.806 733.878,-417.529 732.094,-427.972 738.996,-426.806"/>
</g>
<!-- _Symfony_Component_Console_Command_Command____construct&#45;&gt;_Symfony_Component_Console_Command_Command__getProcessedHelp -->
<g id="edge18" class="edge"><title>_Symfony_Component_Console_Command_Command____construct&#45;&gt;_Symfony_Component_Console_Command_Command__getProcessedHelp</title>
<path fill="none" stroke="black" d="M709.759,-454.377C695.283,-445.364 679.303,-433.041 669,-418 657.059,-400.569 626.188,-267.19 613.056,-208.767"/>
<polygon fill="black" stroke="black" points="616.419,-207.769 610.819,-198.776 609.589,-209.299 616.419,-207.769"/>
</g>
<!-- _Symfony_Component_Console_Command_Command__getHelp -->
<g id="node21" class="node"><title>_Symfony_Component_Console_Command_Command__getHelp</title>
<polygon fill="#cccccc" stroke="black" points="490.5,-89.5 490.5,-125.5 549.5,-125.5 549.5,-89.5 490.5,-89.5"/>
<text text-anchor="middle" x="520" y="-103.8" font-family="Times New Roman,serif" font-size="14.00">getHelp</text>
</g>
<!-- _Symfony_Component_Console_Command_Command__setCode -->
<g id="node22" class="node"><title>_Symfony_Component_Console_Command_Command__setCode</title>
<polygon fill="#cccccc" stroke="black" points="627.5,-454.5 627.5,-490.5 690.5,-490.5 690.5,-454.5 627.5,-454.5"/>
<text text-anchor="middle" x="659" y="-468.8" font-family="Times New Roman,serif" font-size="14.00">setCode</text>
</g>
<!-- _Symfony_Component_Console_Command_Command__ignoreValidationErrors -->
<g id="node23" class="node"><title>_Symfony_Component_Console_Command_Command__ignoreValidationErrors</title>
<polygon fill="#cccccc" stroke="black" points="466.5,-454.5 466.5,-490.5 609.5,-490.5 609.5,-454.5 466.5,-454.5"/>
<text text-anchor="middle" x="538" y="-468.8" font-family="Times New Roman,serif" font-size="14.00">ignoreValidationErrors</text>
</g>
<!-- _Symfony_Component_Console_Command_Command__isHidden -->
<g id="node24" class="node"><title>_Symfony_Component_Console_Command_Command__isHidden</title>
<polygon fill="#cccccc" stroke="black" points="382,-454.5 382,-490.5 448,-490.5 448,-454.5 382,-454.5"/>
<text text-anchor="middle" x="415" y="-468.8" font-family="Times New Roman,serif" font-size="14.00">isHidden</text>
</g>
<!-- _Symfony_Component_Console_Command_Command__setHelp -->
<g id="node27" class="node"><title>_Symfony_Component_Console_Command_Command__setHelp</title>
<polygon fill="#cccccc" stroke="black" points="304.5,-454.5 304.5,-490.5 363.5,-490.5 363.5,-454.5 304.5,-454.5"/>
<text text-anchor="middle" x="334" y="-468.8" font-family="Times New Roman,serif" font-size="14.00">setHelp</text>
</g>
<!-- _Symfony_Component_Console_Command_Command__addArgument&#45;&gt;_Symfony_Component_Console_Command_Command__validateName -->
<g id="edge25" class="edge"><title>_Symfony_Component_Console_Command_Command__addArgument&#45;&gt;_Symfony_Component_Console_Command_Command__validateName</title>
<path fill="none" stroke="black" d="M432.73,-381.475C416.963,-372.339 398.932,-359.885 386,-345 356.794,-311.384 343,-299.032 343,-254.5 343,-254.5 343,-254.5 343,-179.5 343,-139.033 329.238,-121.756 353,-89 367.909,-68.4487 392.61,-55.6194 415.571,-47.6979"/>
<polygon fill="black" stroke="black" points="416.813,-50.9755 425.271,-44.5953 414.68,-44.3082 416.813,-50.9755"/>
</g>
<!-- _Symfony_Component_Console_Command_Command__addArgument&#45;&gt;_Symfony_Component_Console_Command_Command__addOption -->
<g id="edge21" class="edge"><title>_Symfony_Component_Console_Command_Command__addArgument&#45;&gt;_Symfony_Component_Console_Command_Command__addOption</title>
<path fill="none" stroke="black" d="M487.334,-381.313C498.065,-372.243 511.394,-360.977 523.078,-351.1"/>
<polygon fill="black" stroke="black" points="525.475,-353.657 530.853,-344.529 520.956,-348.311 525.475,-353.657"/>
</g>
<!-- _Symfony_Component_Console_Command_Command__addArgument&#45;&gt;_Symfony_Component_Console_Command_Command__getHelper -->
<g id="edge24" class="edge"><title>_Symfony_Component_Console_Command_Command__addArgument&#45;&gt;_Symfony_Component_Console_Command_Command__getHelper</title>
<path fill="none" stroke="black" d="M448.453,-381.402C425.57,-358.91 387.869,-316.939 373,-272 357.564,-225.347 373.527,-167.931 385.783,-135.039"/>
<polygon fill="black" stroke="black" points="389.069,-136.246 389.429,-125.657 382.544,-133.71 389.069,-136.246"/>
</g>
<!-- _Symfony_Component_Console_Command_Command__addArgument&#45;&gt;_Symfony_Component_Console_Command_Command__setName -->
<g id="edge22" class="edge"><title>_Symfony_Component_Console_Command_Command__addArgument&#45;&gt;_Symfony_Component_Console_Command_Command__setName</title>
<path fill="none" stroke="black" d="M460.831,-381.416C451.878,-356.625 435.203,-310.448 424.626,-281.156"/>
<polygon fill="black" stroke="black" points="427.85,-279.779 421.161,-271.562 421.266,-282.156 427.85,-279.779"/>
</g>
<!-- _Symfony_Component_Console_Command_Command__addArgument&#45;&gt;_Symfony_Component_Console_Command_Command__setDescription -->
<g id="edge35" class="edge"><title>_Symfony_Component_Console_Command_Command__addArgument&#45;&gt;_Symfony_Component_Console_Command_Command__setDescription</title>
<path fill="none" stroke="black" d="M472.848,-381.47C479.398,-363.012 490.718,-332.863 503,-308 507.506,-298.879 513.017,-289.243 518.188,-280.7"/>
<polygon fill="black" stroke="black" points="521.324,-282.282 523.602,-271.935 515.369,-278.603 521.324,-282.282"/>
</g>
<!-- _Symfony_Component_Console_Command_Command__addArgument&#45;&gt;_Symfony_Component_Console_Command_Command__getProcessedHelp -->
<g id="edge23" class="edge"><title>_Symfony_Component_Console_Command_Command__addArgument&#45;&gt;_Symfony_Component_Console_Command_Command__getProcessedHelp</title>
<path fill="none" stroke="black" d="M462.608,-381.281C455.496,-349.177 445.242,-279.416 477,-235 491.47,-214.762 515.029,-202.159 538.144,-194.319"/>
<polygon fill="black" stroke="black" points="539.494,-197.564 547.996,-191.242 537.407,-190.882 539.494,-197.564"/>
</g>
<!-- _Symfony_Component_Console_Command_Command__getDescription -->
<g id="node31" class="node"><title>_Symfony_Component_Console_Command_Command__getDescription</title>
<polygon fill="#cccccc" stroke="black" points="568,-89.5 568,-125.5 666,-125.5 666,-89.5 568,-89.5"/>
<text text-anchor="middle" x="617" y="-103.8" font-family="Times New Roman,serif" font-size="14.00">getDescription</text>
</g>
<!-- _Symfony_Component_Console_Command_Command__getHelperSet -->
<g id="node33" class="node"><title>_Symfony_Component_Console_Command_Command__getHelperSet</title>
<polygon fill="#cccccc" stroke="black" points="198,-454.5 198,-490.5 286,-490.5 286,-454.5 198,-454.5"/>
<text text-anchor="middle" x="242" y="-468.8" font-family="Times New Roman,serif" font-size="14.00">getHelperSet</text>
</g>
<!-- _Symfony_Component_Console_Command_Command__isEnabled -->
<g id="node35" class="node"><title>_Symfony_Component_Console_Command_Command__isEnabled</title>
<polygon fill="#cccccc" stroke="black" points="108.5,-454.5 108.5,-490.5 179.5,-490.5 179.5,-454.5 108.5,-454.5"/>
<text text-anchor="middle" x="144" y="-468.8" font-family="Times New Roman,serif" font-size="14.00">isEnabled</text>
</g>
<!-- _Symfony_Component_Console_Command_Command__getProcessedHelp&#45;&gt;_Symfony_Component_Console_Command_Command__validateName -->
<g id="edge33" class="edge"><title>_Symfony_Component_Console_Command_Command__getProcessedHelp&#45;&gt;_Symfony_Component_Console_Command_Command__validateName</title>
<path fill="none" stroke="black" d="M552.178,-162.384C522.569,-151.996 490.221,-138.393 481,-126 467.625,-108.023 465.996,-82.207 467.205,-62.745"/>
<polygon fill="black" stroke="black" points="470.701,-62.9505 468.113,-52.6766 463.729,-62.3219 470.701,-62.9505"/>
</g>
<!-- _Symfony_Component_Console_Command_Command__getProcessedHelp&#45;&gt;_Symfony_Component_Console_Command_Command__getHelper -->
<g id="edge32" class="edge"><title>_Symfony_Component_Console_Command_Command__getProcessedHelp&#45;&gt;_Symfony_Component_Console_Command_Command__getHelper</title>
<path fill="none" stroke="black" d="M556.7,-162.494C521.69,-150.657 475.425,-135.015 441.707,-123.615"/>
<polygon fill="black" stroke="black" points="442.706,-120.258 432.111,-120.371 440.464,-126.89 442.706,-120.258"/>
</g>
<!-- _Symfony_Component_Console_Command_Command__getProcessedHelp&#45;&gt;_Symfony_Component_Console_Command_Command__getHelp -->
<g id="edge1" class="edge"><title>_Symfony_Component_Console_Command_Command__getProcessedHelp&#45;&gt;_Symfony_Component_Console_Command_Command__getHelp</title>
<path fill="none" stroke="black" d="M585.94,-162.313C574.826,-153.243 561.021,-141.977 548.919,-132.1"/>
<polygon fill="black" stroke="black" points="550.827,-129.14 540.866,-125.529 546.401,-134.563 550.827,-129.14"/>
</g>
<!-- _Symfony_Component_Console_Command_Command__getProcessedHelp&#45;&gt;_Symfony_Component_Console_Command_Command__getDescription -->
<g id="edge2" class="edge"><title>_Symfony_Component_Console_Command_Command__getProcessedHelp&#45;&gt;_Symfony_Component_Console_Command_Command__getDescription</title>
<path fill="none" stroke="black" d="M609.421,-162.313C610.551,-154.289 611.923,-144.547 613.187,-135.569"/>
<polygon fill="black" stroke="black" points="616.673,-135.919 614.602,-125.529 609.741,-134.943 616.673,-135.919"/>
</g>
<!-- _Symfony_Component_Console_Command_Command__getUsages -->
<g id="node37" class="node"><title>_Symfony_Component_Console_Command_Command__getUsages</title>
<polygon fill="#cccccc" stroke="black" points="16,-454.5 16,-490.5 90,-490.5 90,-454.5 16,-454.5"/>
<text text-anchor="middle" x="53" y="-468.8" font-family="Times New Roman,serif" font-size="14.00">getUsages</text>
</g>
</g>
</svg>
