<?xml version="1.0" encoding="UTF-8" standalone="no"?>
<!DOCTYPE svg PUBLIC "-//W3C//DTD SVG 1.1//EN"
 "http://www.w3.org/Graphics/SVG/1.1/DTD/svg11.dtd">
<!-- Generated by graphviz version 2.38.0 (20140413.2041)
 -->
<!-- Title: _Symfony_Component_Lock Pages: 1 -->
<svg width="360pt" height="51pt"
 viewBox="0.00 0.00 360.00 51.10" xmlns="http://www.w3.org/2000/svg" xmlns:xlink="http://www.w3.org/1999/xlink">
<g id="graph0" class="graph" transform="scale(0.287081 0.287081) rotate(0) translate(4 174)">
<title>_Symfony_Component_Lock</title>
<polygon fill="white" stroke="none" points="-4,4 -4,-174 1250,-174 1250,4 -4,4"/>
<g id="clust1" class="cluster"><title>cluster___Symfony__Component__Lock</title>
<polygon fill="#eeeeee" stroke="black" points="8,-8 8,-162 1238,-162 1238,-8 8,-8"/>
<text text-anchor="middle" x="623" y="-146.8" font-family="Times New Roman,serif" font-size="14.00">\Symfony\Component\Lock</text>
</g>
<g id="clust3" class="cluster"><title>cluster___Symfony__Component__Lock__Store</title>
<polygon fill="#eeeeee" stroke="black" points="1022,-24 1022,-100 1230,-100 1230,-24 1022,-24"/>
<text text-anchor="middle" x="1126" y="-84.8" font-family="Times New Roman,serif" font-size="14.00">\Symfony\Component\Lock\Store</text>
</g>
<g id="clust4" class="cluster"><title>cluster___Symfony__Component__Lock__Strategy</title>
<polygon fill="#eeeeee" stroke="black" points="790,-24 790,-100 1014,-100 1014,-24 790,-24"/>
<text text-anchor="middle" x="902" y="-84.8" font-family="Times New Roman,serif" font-size="14.00">\Symfony\Component\Lock\Strategy</text>
</g>
<g id="clust5" class="cluster"><title>cluster___Symfony__Component__Lock__Tests</title>
<polygon fill="#eeeeee" stroke="black" points="258,-16 258,-131 782,-131 782,-16 258,-16"/>
<text text-anchor="middle" x="520" y="-115.8" font-family="Times New Roman,serif" font-size="14.00">\Symfony\Component\Lock\Tests</text>
</g>
<g id="clust6" class="cluster"><title>cluster___Symfony__Component__Lock__Tests__Store</title>
<polygon fill="#eeeeee" stroke="black" points="532,-24 532,-100 774,-100 774,-24 532,-24"/>
<text text-anchor="middle" x="653" y="-84.8" font-family="Times New Roman,serif" font-size="14.00">\Symfony\Component\Lock\Tests\Store</text>
</g>
<g id="clust7" class="cluster"><title>cluster___Symfony__Component__Lock__Tests__Strategy</title>
<polygon fill="#eeeeee" stroke="black" points="266,-24 266,-100 524,-100 524,-24 266,-24"/>
<text text-anchor="middle" x="395" y="-84.8" font-family="Times New Roman,serif" font-size="14.00">\Symfony\Component\Lock\Tests\Strategy</text>
</g>
<g id="clust2" class="cluster"><title>cluster___Symfony__Component__Lock__Exception</title>
<polygon fill="#eeeeee" stroke="black" points="16,-24 16,-100 250,-100 250,-24 16,-24"/>
<text text-anchor="middle" x="133" y="-84.8" font-family="Times New Roman,serif" font-size="14.00">\Symfony\Component\Lock\Exception</text>
</g>
<!-- _Symfony_Component_Lock_Exception -->
<g id="node1" class="node"><title>_Symfony_Component_Lock_Exception</title>
<polygon fill="#cccccc" stroke="black" points="96.5,-32.5 96.5,-68.5 169.5,-68.5 169.5,-32.5 96.5,-32.5"/>
<text text-anchor="middle" x="133" y="-46.8" font-family="Times New Roman,serif" font-size="14.00">Exception</text>
</g>
<!-- _Symfony_Component_Lock_Store -->
<g id="node2" class="node"><title>_Symfony_Component_Lock_Store</title>
<polygon fill="#cccccc" stroke="black" points="1099,-32.5 1099,-68.5 1153,-68.5 1153,-32.5 1099,-32.5"/>
<text text-anchor="middle" x="1126" y="-46.8" font-family="Times New Roman,serif" font-size="14.00">Store</text>
</g>
<!-- _Symfony_Component_Lock_Strategy -->
<g id="node3" class="node"><title>_Symfony_Component_Lock_Strategy</title>
<polygon fill="#cccccc" stroke="black" points="871,-32.5 871,-68.5 933,-68.5 933,-32.5 871,-32.5"/>
<text text-anchor="middle" x="902" y="-46.8" font-family="Times New Roman,serif" font-size="14.00">Strategy</text>
</g>
<!-- _Symfony_Component_Lock_Tests_Store -->
<g id="node4" class="node"><title>_Symfony_Component_Lock_Tests_Store</title>
<polygon fill="#cccccc" stroke="black" points="626,-32.5 626,-68.5 680,-68.5 680,-32.5 626,-32.5"/>
<text text-anchor="middle" x="653" y="-46.8" font-family="Times New Roman,serif" font-size="14.00">Store</text>
</g>
<!-- _Symfony_Component_Lock_Tests_Strategy -->
<g id="node5" class="node"><title>_Symfony_Component_Lock_Tests_Strategy</title>
<polygon fill="#cccccc" stroke="black" points="364,-32.5 364,-68.5 426,-68.5 426,-32.5 364,-32.5"/>
<text text-anchor="middle" x="395" y="-46.8" font-family="Times New Roman,serif" font-size="14.00">Strategy</text>
</g>
</g>
</svg>
